<svg xmlns="http://www.w3.org/2000/svg" xmlns:xlink="http://www.w3.org/1999/xlink" width="2000" zoomAndPan="magnify" viewBox="0 0 1500 1499.999933" height="2000" preserveAspectRatio="xMidYMid meet" version="1.0"><defs><g/><clipPath id="09f47a3643"><path d="M 402.167969 356.105469 L 1098 356.105469 L 1098 1009.097656 L 402.167969 1009.097656 Z M 402.167969 356.105469 " clip-rule="nonzero"/></clipPath><clipPath id="8a81760125"><path d="M 439.667969 356.105469 L 1060.332031 356.105469 C 1070.277344 356.105469 1079.816406 360.058594 1086.847656 367.089844 C 1093.878906 374.121094 1097.832031 383.660156 1097.832031 393.605469 L 1097.832031 971.597656 C 1097.832031 981.546875 1093.878906 991.082031 1086.847656 998.117188 C 1079.816406 1005.148438 1070.277344 1009.097656 1060.332031 1009.097656 L 439.667969 1009.097656 C 429.722656 1009.097656 420.183594 1005.148438 413.152344 998.117188 C 406.121094 991.082031 402.167969 981.546875 402.167969 971.597656 L 402.167969 393.605469 C 402.167969 383.660156 406.121094 374.121094 413.152344 367.089844 C 420.183594 360.058594 429.722656 356.105469 439.667969 356.105469 Z M 439.667969 356.105469 " clip-rule="nonzero"/></clipPath><clipPath id="1c0668d896"><path d="M 0.167969 0.105469 L 696 0.105469 L 696 653.097656 L 0.167969 653.097656 Z M 0.167969 0.105469 " clip-rule="nonzero"/></clipPath><clipPath id="1b87eb52f3"><path d="M 37.667969 0.105469 L 658.332031 0.105469 C 668.277344 0.105469 677.816406 4.058594 684.847656 11.089844 C 691.878906 18.121094 695.832031 27.660156 695.832031 37.605469 L 695.832031 615.597656 C 695.832031 625.546875 691.878906 635.082031 684.847656 642.117188 C 677.816406 649.148438 668.277344 653.097656 658.332031 653.097656 L 37.667969 653.097656 C 27.722656 653.097656 18.183594 649.148438 11.152344 642.117188 C 4.121094 635.082031 0.167969 625.546875 0.167969 615.597656 L 0.167969 37.605469 C 0.167969 27.660156 4.121094 18.121094 11.152344 11.089844 C 18.183594 4.058594 27.722656 0.105469 37.667969 0.105469 Z M 37.667969 0.105469 " clip-rule="nonzero"/></clipPath><clipPath id="2b78161352"><rect x="0" width="696" y="0" height="654"/></clipPath><clipPath id="5c6af08dab"><path d="M 402.167969 356.105469 L 1098 356.105469 L 1098 1009.355469 L 402.167969 1009.355469 Z M 402.167969 356.105469 " clip-rule="nonzero"/></clipPath><clipPath id="99e717767f"><path d="M 439.667969 356.105469 L 1060.328125 356.105469 C 1070.273438 356.105469 1079.8125 360.058594 1086.84375 367.089844 C 1093.878906 374.125 1097.828125 383.660156 1097.828125 393.605469 L 1097.828125 971.597656 C 1097.828125 981.542969 1093.878906 991.082031 1086.84375 998.113281 C 1079.8125 1005.148438 1070.273438 1009.097656 1060.328125 1009.097656 L 439.667969 1009.097656 C 429.722656 1009.097656 420.183594 1005.148438 413.152344 998.113281 C 406.121094 991.082031 402.167969 981.542969 402.167969 971.597656 L 402.167969 393.605469 C 402.167969 383.660156 406.121094 374.125 413.152344 367.089844 C 420.183594 360.058594 429.722656 356.105469 439.667969 356.105469 Z M 439.667969 356.105469 " clip-rule="nonzero"/></clipPath></defs><g clip-path="url(#09f47a3643)"><g clip-path="url(#8a81760125)"><g transform="matrix(1, 0, 0, 1, 402, 356)"><g clip-path="url(#2b78161352)"><g clip-path="url(#1c0668d896)"><g clip-path="url(#1b87eb52f3)"><path fill="#f6f4f0" d="M 0.167969 0.105469 L 696.523438 0.105469 L 696.523438 653.097656 L 0.167969 653.097656 Z M 0.167969 0.105469 " fill-opacity="1" fill-rule="nonzero"/></g></g></g></g></g></g><g clip-path="url(#5c6af08dab)"><g clip-path="url(#99e717767f)"><path stroke-linecap="butt" transform="matrix(0.75, 0, 0, 0.75, 402.169012, 356.106746)" fill="none" stroke-linejoin="miter" d="M 49.998617 -0.00170317 L 877.545616 -0.00170317 C 890.806035 -0.00170317 903.524787 5.269131 912.899788 14.644132 C 922.279998 24.024342 927.545624 36.737886 927.545624 49.998304 L 927.545624 820.65467 C 927.545624 833.915089 922.279998 846.633841 912.899788 856.008842 C 903.524787 865.389052 890.806035 870.654678 877.545616 870.654678 L 49.998617 870.654678 C 36.738199 870.654678 24.019447 865.389052 14.644445 856.008842 C 5.269444 846.633841 -0.00139035 833.915089 -0.00139035 820.65467 L -0.00139035 49.998304 C -0.00139035 36.737886 5.269444 24.024342 14.644445 14.644132 C 24.019447 5.269131 36.738199 -0.00170317 49.998617 -0.00170317 Z M 49.998617 -0.00170317 " stroke="#7c0116" stroke-width="2" stroke-opacity="1" stroke-miterlimit="4"/></g></g><g fill="#560614" fill-opacity="1"><g transform="translate(546.689391, 908.491543)"><g><path d="M 236.796875 -429.59375 C 242.660156 -411.46875 247.0625 -397.46875 250 -387.59375 C 252.9375 -377.726562 255.335938 -369.59375 257.203125 -363.1875 C 259.066406 -356.789062 261.195312 -349.457031 263.59375 -341.1875 C 266 -332.925781 269.332031 -320.796875 273.59375 -304.796875 L 277.59375 -288 C 278.132812 -290.664062 278.800781 -293.460938 279.59375 -296.390625 C 280.394531 -299.328125 281.0625 -302.128906 281.59375 -304.796875 C 285.863281 -320.796875 289.195312 -332.925781 291.59375 -341.1875 C 294 -349.457031 296.265625 -356.789062 298.390625 -363.1875 C 300.523438 -369.59375 303.0625 -377.726562 306 -387.59375 C 308.9375 -397.46875 313.070312 -411.46875 318.40625 -429.59375 C 329.070312 -464.257812 343.46875 -489.457031 361.59375 -505.1875 C 379.726562 -520.925781 401.863281 -531.0625 428 -535.59375 C 454.132812 -540.132812 483.734375 -542.40625 516.796875 -542.40625 L 537.59375 -542.40625 L 537.59375 0 L 362.40625 0 L 362.40625 -15.203125 C 362.40625 -43.460938 364.9375 -66.523438 370 -84.390625 C 375.0625 -102.265625 381.726562 -117.332031 390 -129.59375 C 398.269531 -141.863281 407.601562 -153.597656 418 -164.796875 C 428.394531 -175.992188 438.789062 -188.925781 449.1875 -203.59375 C 459.59375 -218.257812 469.460938 -236.925781 478.796875 -259.59375 C 488.128906 -282.257812 495.992188 -310.925781 502.390625 -345.59375 C 508.796875 -380.257812 513.066406 -423.460938 515.203125 -475.203125 C 511.460938 -462.929688 508.257812 -452.394531 505.59375 -443.59375 C 502.925781 -434.800781 500.125 -426.003906 497.1875 -417.203125 C 494.257812 -408.398438 491.0625 -397.863281 487.59375 -385.59375 C 484.132812 -373.332031 479.46875 -357.601562 473.59375 -338.40625 C 467.195312 -316.53125 458.128906 -298.789062 446.390625 -285.1875 C 434.660156 -271.59375 421.863281 -260.53125 408 -252 C 394.132812 -243.46875 380.132812 -235.597656 366 -228.390625 C 351.863281 -221.191406 338.925781 -213.0625 327.1875 -204 C 315.457031 -194.9375 305.992188 -183.46875 298.796875 -169.59375 C 291.597656 -155.726562 288 -137.597656 288 -115.203125 L 268 -115.203125 C 268 -137.597656 264.398438 -155.726562 257.203125 -169.59375 C 250.003906 -183.46875 240.535156 -194.9375 228.796875 -204 C 217.066406 -213.0625 204.132812 -221.191406 190 -228.390625 C 175.863281 -235.597656 161.863281 -243.46875 148 -252 C 134.132812 -260.53125 121.46875 -271.59375 110 -285.1875 C 98.53125 -298.789062 89.332031 -316.53125 82.40625 -338.40625 C 76.53125 -358.132812 71.726562 -374.128906 68 -386.390625 C 64.269531 -398.660156 60.9375 -409.195312 58 -418 C 55.0625 -426.800781 52.257812 -435.734375 49.59375 -444.796875 C 46.925781 -453.867188 43.460938 -464.800781 39.203125 -477.59375 C 41.335938 -425.332031 45.601562 -381.734375 52 -346.796875 C 58.394531 -311.867188 66.394531 -283.070312 76 -260.40625 C 85.601562 -237.738281 95.601562 -219.070312 106 -204.40625 C 116.394531 -189.738281 126.789062 -176.671875 137.1875 -165.203125 C 147.59375 -153.734375 157.0625 -141.863281 165.59375 -129.59375 C 174.132812 -117.332031 180.9375 -102.265625 186 -84.390625 C 191.0625 -66.523438 193.59375 -43.460938 193.59375 -15.203125 L 193.59375 0 L 18.40625 0 L 18.40625 -542.40625 C 46.132812 -542.40625 71.597656 -541.601562 94.796875 -540 C 117.992188 -538.394531 138.789062 -534.257812 157.1875 -527.59375 C 175.59375 -520.925781 191.460938 -509.859375 204.796875 -494.390625 C 218.128906 -478.929688 228.796875 -457.332031 236.796875 -429.59375 Z M 236.796875 -429.59375 "/></g></g></g><g fill="#c2185b" fill-opacity="1"><g transform="translate(394.700213, 991.007703)"><g><path d="M 439.203125 -210.40625 C 442.398438 -196 444.265625 -179.460938 444.796875 -160.796875 C 445.328125 -142.128906 443.59375 -123.0625 439.59375 -103.59375 C 435.59375 -84.132812 428.257812 -66.132812 417.59375 -49.59375 C 406.925781 -33.0625 391.726562 -19.726562 372 -9.59375 C 352.269531 0.53125 327.203125 5.59375 296.796875 5.59375 C 272.796875 5.59375 252.53125 2.660156 236 -3.203125 C 219.46875 -9.066406 205.203125 -16.265625 193.203125 -24.796875 C 181.203125 -33.328125 170.535156 -41.726562 161.203125 -50 C 151.867188 -58.269531 142.800781 -65.335938 134 -71.203125 C 125.195312 -77.066406 115.195312 -80 104 -80 C 85.332031 -80 71.332031 -76 62 -68 C 52.664062 -60 46.398438 -49.863281 43.203125 -37.59375 C 40.003906 -25.332031 38.40625 -12.800781 38.40625 0 L 18.40625 0 L 18.40625 -542.40625 L 193.59375 -542.40625 L 193.59375 -292 C 193.59375 -273.332031 189.328125 -258.929688 180.796875 -248.796875 C 172.265625 -238.660156 161.332031 -230.257812 148 -223.59375 C 134.664062 -216.925781 120.796875 -209.457031 106.390625 -201.1875 C 91.992188 -192.925781 79.0625 -181.863281 67.59375 -168 C 56.132812 -154.132812 47.738281 -134.664062 42.40625 -109.59375 C 60 -142.664062 83.460938 -166.398438 112.796875 -180.796875 C 142.128906 -195.203125 170.664062 -202.40625 198.40625 -202.40625 C 218.132812 -202.40625 236 -199.203125 252 -192.796875 C 268 -186.398438 282.53125 -179.203125 295.59375 -171.203125 C 308.664062 -163.203125 320.664062 -156 331.59375 -149.59375 C 342.53125 -143.195312 352.800781 -140 362.40625 -140 C 375.738281 -140 386.800781 -144.128906 395.59375 -152.390625 C 404.394531 -160.660156 410.925781 -170.394531 415.1875 -181.59375 C 419.457031 -192.800781 420.796875 -202.671875 419.203125 -211.203125 Z M 439.203125 -210.40625 "/></g></g></g></svg>